<mxfile host="app.diagrams.net" agent="Mozilla/5.0 (Windows NT 10.0; Win64; x64; rv:139.0) Gecko/20100101 Firefox/139.0" version="28.2.4">
  <diagram name="Seite-1" id="sTCeEwxjWVcCnjTOneQ4">
    <mxGraphModel dx="1426" dy="751" grid="1" gridSize="10" guides="1" tooltips="1" connect="1" arrows="1" fold="1" page="1" pageScale="1" pageWidth="827" pageHeight="1169" math="0" shadow="0">
      <root>
        <mxCell id="0" />
        <mxCell id="1" parent="0" />
        <mxCell id="y_yhLAJfwM6dCgxMBDcW-1" value="Execute Pings" style="rounded=0;whiteSpace=wrap;html=1;" vertex="1" parent="1">
          <mxGeometry x="40" y="40" width="120" height="60" as="geometry" />
        </mxCell>
        <mxCell id="y_yhLAJfwM6dCgxMBDcW-2" value="Ping Target 1" style="rounded=0;whiteSpace=wrap;html=1;" vertex="1" parent="1">
          <mxGeometry x="120" y="160" width="120" height="60" as="geometry" />
        </mxCell>
        <mxCell id="y_yhLAJfwM6dCgxMBDcW-3" value="response?" style="rhombus;whiteSpace=wrap;html=1;" vertex="1" parent="1">
          <mxGeometry x="280" y="140" width="90" height="100" as="geometry" />
        </mxCell>
        <mxCell id="y_yhLAJfwM6dCgxMBDcW-4" value="&lt;div&gt;set red led 1 to LOW&lt;/div&gt;&lt;div&gt;set green led 1 to HIGH&lt;/div&gt;" style="rounded=0;whiteSpace=wrap;html=1;" vertex="1" parent="1">
          <mxGeometry x="400" y="160" width="120" height="60" as="geometry" />
        </mxCell>
        <mxCell id="y_yhLAJfwM6dCgxMBDcW-5" value="set red led 1 to HIGH" style="rounded=0;whiteSpace=wrap;html=1;" vertex="1" parent="1">
          <mxGeometry x="400" y="280" width="120" height="60" as="geometry" />
        </mxCell>
        <mxCell id="y_yhLAJfwM6dCgxMBDcW-6" value="yes" style="text;html=1;align=center;verticalAlign=middle;whiteSpace=wrap;rounded=0;" vertex="1" parent="1">
          <mxGeometry x="348" y="160" width="60" height="30" as="geometry" />
        </mxCell>
        <mxCell id="y_yhLAJfwM6dCgxMBDcW-7" value="no" style="text;html=1;align=center;verticalAlign=middle;whiteSpace=wrap;rounded=0;" vertex="1" parent="1">
          <mxGeometry x="310" y="230" width="60" height="30" as="geometry" />
        </mxCell>
        <mxCell id="y_yhLAJfwM6dCgxMBDcW-8" value="" style="endArrow=classic;html=1;rounded=0;exitX=0.5;exitY=1;exitDx=0;exitDy=0;" edge="1" parent="1" source="y_yhLAJfwM6dCgxMBDcW-3">
          <mxGeometry width="50" height="50" relative="1" as="geometry">
            <mxPoint x="310" y="320" as="sourcePoint" />
            <mxPoint x="400" y="310" as="targetPoint" />
            <Array as="points">
              <mxPoint x="325" y="310" />
            </Array>
          </mxGeometry>
        </mxCell>
        <mxCell id="y_yhLAJfwM6dCgxMBDcW-9" value="" style="endArrow=classic;html=1;rounded=0;exitX=1;exitY=0.5;exitDx=0;exitDy=0;entryX=0;entryY=0.5;entryDx=0;entryDy=0;" edge="1" parent="1" source="y_yhLAJfwM6dCgxMBDcW-3" target="y_yhLAJfwM6dCgxMBDcW-4">
          <mxGeometry width="50" height="50" relative="1" as="geometry">
            <mxPoint x="390" y="420" as="sourcePoint" />
            <mxPoint x="440" y="370" as="targetPoint" />
          </mxGeometry>
        </mxCell>
        <mxCell id="y_yhLAJfwM6dCgxMBDcW-10" value="" style="endArrow=classic;html=1;rounded=0;exitX=1;exitY=0.5;exitDx=0;exitDy=0;entryX=0;entryY=0.5;entryDx=0;entryDy=0;" edge="1" parent="1" source="y_yhLAJfwM6dCgxMBDcW-2" target="y_yhLAJfwM6dCgxMBDcW-3">
          <mxGeometry width="50" height="50" relative="1" as="geometry">
            <mxPoint x="390" y="360" as="sourcePoint" />
            <mxPoint x="440" y="310" as="targetPoint" />
          </mxGeometry>
        </mxCell>
        <mxCell id="y_yhLAJfwM6dCgxMBDcW-20" value="Repeat for next Target" style="rounded=0;whiteSpace=wrap;html=1;" vertex="1" parent="1">
          <mxGeometry x="600" y="160" width="120" height="60" as="geometry" />
        </mxCell>
        <mxCell id="y_yhLAJfwM6dCgxMBDcW-21" value="" style="endArrow=classic;html=1;rounded=0;exitX=1;exitY=0.5;exitDx=0;exitDy=0;" edge="1" parent="1" source="y_yhLAJfwM6dCgxMBDcW-4" target="y_yhLAJfwM6dCgxMBDcW-20">
          <mxGeometry width="50" height="50" relative="1" as="geometry">
            <mxPoint x="390" y="360" as="sourcePoint" />
            <mxPoint x="440" y="310" as="targetPoint" />
          </mxGeometry>
        </mxCell>
        <mxCell id="y_yhLAJfwM6dCgxMBDcW-22" value="" style="endArrow=classic;html=1;rounded=0;exitX=1;exitY=0.5;exitDx=0;exitDy=0;entryX=0;entryY=0.5;entryDx=0;entryDy=0;" edge="1" parent="1" source="y_yhLAJfwM6dCgxMBDcW-5" target="y_yhLAJfwM6dCgxMBDcW-20">
          <mxGeometry width="50" height="50" relative="1" as="geometry">
            <mxPoint x="390" y="360" as="sourcePoint" />
            <mxPoint x="440" y="310" as="targetPoint" />
            <Array as="points">
              <mxPoint x="560" y="310" />
              <mxPoint x="560" y="190" />
            </Array>
          </mxGeometry>
        </mxCell>
      </root>
    </mxGraphModel>
  </diagram>
</mxfile>
